<svg width="85" height="67" viewBox="0 0 85 67" xmlns="http://www.w3.org/2000/svg" xmlns:xlink="http://www.w3.org/1999/xlink">
<svg width="24" height="24" fill="none" viewBox="0 0 24 24" x="61" xmlns="http://www.w3.org/2000/svg"><path fill-rule="evenodd" clip-rule="evenodd" d="M10.47 22.53a.75.75 0 0 1 0-1.06l3-3a.75.75 0 0 1 .53-.22h1A4.25 4.25 0 0 0 19.25 14V8c0-2.348-1.9-4.25-4.247-4.25H7.999A4.249 4.249 0 0 0 3.75 8v6A4.25 4.25 0 0 0 8 18.25h1a.75.75 0 0 1 0 1.5H8A5.75 5.75 0 0 1 2.25 14V8a5.749 5.749 0 0 1 5.749-5.75h7.004A5.748 5.748 0 0 1 20.75 8v6A5.75 5.75 0 0 1 15 19.75h-.69l-2.78 2.78a.75.75 0 0 1-1.06 0zM10.25 13a.75.75 0 0 1 .75-.75h4a.75.75 0 0 1 0 1.5h-4a.75.75 0 0 1-.75-.75zM11 8.25a.75.75 0 0 0 0 1.5h4a.75.75 0 0 0 0-1.5h-4zM7 9a1 1 0 1 1 2 0 1 1 0 0 1-2 0zm1 3a1 1 0 1 0 0 2 1 1 0 0 0 0-2z" fill="#000"/></svg>
<svg width="57" height="20" viewBox="0 0 57 20" y="32" xmlns="http://www.w3.org/2000/svg"><path fill="#4A65F6" fill-rule="evenodd" d="M26.225 5.08c1.322 0 2.495.515 3.487 1.531.99 1.013 1.491 2.242 1.491 3.653 0 1.412-.5 2.64-1.486 3.65-.988 1.011-2.163 1.525-3.492 1.525a4.55 4.55 0 0 1-1.289-.184 4.565 4.565 0 0 1-1.045-.438 5.953 5.953 0 0 1-.73-.51 5.217 5.217 0 0 1-.361-.324v5.26a.237.237 0 0 1-.242.232h-1.273a.237.237 0 0 1-.242-.233V5.52c0-.128.108-.232.242-.232h1.273c.134 0 .242.104.242.232v1.04c.083-.082.198-.188.346-.32.228-.202.48-.384.746-.542a4.702 4.702 0 0 1 1.033-.428c.42-.125.858-.189 1.3-.189zm-21.519 0c1.306 0 2.413.468 3.29 1.389l.046.046c.263.275 1.56 1.767 1.213 4.094a.225.225 0 0 1-.222.19h-7.39c.08.611.556 2.884 3.158 2.884 1.555 0 2.51-1.002 2.856-1.444a.221.221 0 0 1 .332-.018l.748.76a.23.23 0 0 1 .017.302c-.385.498-1.707 1.958-3.953 1.958-1.305 0-2.444-.5-3.385-1.485C.476 12.772 0 11.562 0 10.161 0 8.76.472 7.55 1.401 6.566 2.333 5.58 3.445 5.08 4.706 5.08zm44.914.004a.227.227 0 0 1 .211.232v1.24c0 .127-.1.231-.222.231h-.494a2.64 2.64 0 0 0-1.948.825c-.534.547-.806 1.271-.806 2.152v5.245a.227.227 0 0 1-.221.232h-1.167a.227.227 0 0 1-.222-.232V5.532c0-.128.099-.232.222-.232h1.167c.122 0 .221.104.221.232v.831c1.129-1.247 2.697-1.304 3.26-1.279zm4.227-2.544c.124 0 .224.104.224.231v2.375h1.823c.124 0 .225.103.225.23v1.118c0 .127-.1.23-.225.23h-1.823v5.579c0 .927.36 1.359 1.132 1.359a2.93 2.93 0 0 0 1.154-.255c.118-.052.248.04.248.17v1.128c0 .122-.07.232-.179.281a3.133 3.133 0 0 1-1.282.255c-.839 0-1.507-.26-1.986-.772-.476-.51-.718-1.24-.718-2.166V6.725h-1.538a.228.228 0 0 1-.224-.231V5.376c0-.127.1-.23.224-.23h1.538V2.77c0-.127.1-.23.224-.23h1.183zM37.603 5.08c1.305 0 2.412.468 3.29 1.389l.021.02c.19.192 1.598 1.706 1.238 4.12a.225.225 0 0 1-.222.19h-7.39c.08.611.555 2.884 3.158 2.884 1.554 0 2.51-1.002 2.855-1.444a.221.221 0 0 1 .333-.018l.747.76a.23.23 0 0 1 .018.302c-.386.498-1.708 1.958-3.953 1.958-1.305 0-2.444-.5-3.385-1.485-.94-.984-1.416-2.194-1.416-3.595 0-1.401.471-2.61 1.4-3.595.932-.986 2.044-1.486 3.306-1.486zM21.717 0c.194 0 .304.228.187.387L15.66 8.873l3.703 5.123.031.057a.251.251 0 0 1-.158.333l-.062.008H17.75l-.073-.007a.389.389 0 0 1-.193-.1l-.05-.057-2.678-3.706-2.68 3.706-.049.057a.389.389 0 0 1-.192.1l-.073.007h-1.426l-.062-.008c-.136-.038-.211-.197-.158-.333l.031-.057 3.662-5.066-3.662-4.977a.244.244 0 0 1 .126-.38l.061-.008h1.413c.123 0 .238.06.312.16l2.655 3.608L19.992.16a.39.39 0 0 1 .312-.159zm4.508 6.678c-.864 0-1.658.361-2.362 1.074-.705.714-1.063 1.56-1.063 2.512 0 .953.358 1.798 1.063 2.513.704.712 1.498 1.074 2.362 1.074.822 0 1.572-.35 2.227-1.042.66-.696.994-1.552.994-2.545 0-.992-.334-1.848-.994-2.544-.655-.691-1.404-1.042-2.227-1.042zm-21.519-.03c-.778 0-1.466.282-2.046.84a3.357 3.357 0 0 0-1.009 1.85H7.67c-.118-.752-.44-1.387-.96-1.888a2.791 2.791 0 0 0-2.003-.803zm32.897 0c-.778 0-1.466.282-2.046.84a3.358 3.358 0 0 0-1.009 1.85h6.018c-.119-.752-.441-1.387-.96-1.888a2.792 2.792 0 0 0-2.003-.803z"/></svg>
<svg width="58" height="19" fill="none" viewBox="0 0 58 19" y="13" xmlns="http://www.w3.org/2000/svg"><g clip-path="url(#a)"><path fill-rule="evenodd" clip-rule="evenodd" d="M31.826 10.819h1.677V.424h-1.677v10.395zm-.049 7.833h1.677v-6.334h-11.42v1.525h9.743v4.809zm6.836-.922h1.624V5.714h-1.624V17.73zm7.74-16.406h-1.76V17.73h1.67V4.073l.045.07 9.215 13.587h1.736V1.324h-1.67v13.612l-.045-.07-9.192-13.542zM40.69 2.537a1.267 1.267 0 1 1-2.533 0 1.267 1.267 0 0 1 2.533 0zM27.82 10.21L23.44 6.3h.001l-.017-.015-4.397 3.926-1.065-1.17c.243-.199 1.502-1.326 2.612-2.32a241.99 241.99 0 0 1 1.728-1.54.794.794 0 0 0 .276-.605V.622h1.692v3.954a.796.796 0 0 0 .277.605c.215.185.943.837 1.747 1.556v.001c1.106.99 2.352 2.105 2.593 2.302l-1.066 1.17zM6.573 2.732v3.976l-.001-.001c0 .285.1.565.28.785 1.06 1.288 3.943 4.322 4.573 4.972l-1.203 1.106L5.71 8.746 1.203 13.57 0 12.464c.631-.652 3.514-3.686 4.572-4.972.18-.219.28-.498.28-.784V2.733H.98V1.206h9.465v1.526H6.573zm8.946 15.86h-1.677V.462h1.677v18.13z" fill="#000"/></g><defs><clipPath id="a"><path fill="#fff" d="M0 0h58v19H0z"/></clipPath></defs></svg>
<svg width="61" height="13" fill="none" viewBox="0 0 61 13" xmlns="http://www.w3.org/2000/svg"><path d="M38.843 1.005h8.264v2.852h-4.225v1.286h3.891v2.692h-3.89V9.1h4.355v2.85h-8.395V1.005zm-16.089 0h-4.647l-4.285 10.946h4.532l.394-1.429h3.365l.394 1.429h4.532L22.754 1.005zM19.415 7.99l.958-3.612h.11l.957 3.612h-2.025zM33.53 1.005l-2.01 6.6h-.114l-2.008-6.6h-4.444l4.586 10.946h3.847l4.586-10.946H33.53zm-24.66 0v5.522L5.088 1.005H1v10.946h4.077V6.429L8.86 11.95h4.088V1.005H8.87zm47.803 6.847c1.45-.405 2.38-1.445 2.38-3.125C59.054 1.908 56.816 1 53.867 1h-5.09v10.945h4.072v-3.42l2.43 3.42h4.69l-3.295-4.093h-.001zM54.67 5.624c-.235.192-.695.29-1.072.29h-.876V3.758h.86c.41 0 .88.099 1.105.296.224.197.333.465.333.804a.938.938 0 0 1-.35.766z" fill="#00C73C"/></svg><svg width="15" height="15" viewBox="0 0 15 15" x="61" y="24" xmlns="http://www.w3.org/2000/svg"><g fill="none" fill-rule="evenodd"><path fill="#FA605B" d="M7.5 0a7.5 7.5 0 1 1 0 15 7.5 7.5 0 0 1 0-15z"/><path fill="#FFF" d="M10 5v5H9V9H8V8h1V5h1zM6 5v1h1v1H6v3H5V5h1zm2 2v1H7V7h1z"/></g></svg><svg width="11" height="11" viewBox="0 0 11 11" x="27" y="52" xmlns="http://www.w3.org/2000/svg"><g fill="none" fill-rule="evenodd"><path fill="#FF2D15" d="M0 0h11v11H0z"/><path fill="#FFF" d="M3 3h1.294l2.47 3.354h.017V3H8v5H6.698L4.235 4.653H4.22V8H3z"/></g></svg><svg width="15" height="13" fill="none" viewBox="0 0 15 13" x="61" y="39" xmlns="http://www.w3.org/2000/svg"><g clip-path="url(#b)" stroke="#fff"><path d="M6.7 12.46h8M7.86 2.55l2.639 2.639m1.402-1.005a2.058 2.058 0 0 0-2.898-2.898L.7 9.55v2.911h2.91l8.29-8.276v-.001z"/><path d="M7.86 2.55l2.639 2.639m1.402-1.005a2.058 2.058 0 0 0-2.898-2.898L.7 9.55v2.911h2.91l8.29-8.276v-.001z"/></g><defs><clipPath id="b"><path fill="#fff" d="M0 0h15v13H0z"/></clipPath></defs></svg><svg width="15" height="15" fill="none" viewBox="0 0 15 15" y="52" xmlns="http://www.w3.org/2000/svg"><circle cx="7" cy="7" r="6" stroke="#00AB4C"/><path d="M11.58 11.576l3.042 3.041" stroke="#00AB4C"/></svg><svg width="12" height="11" viewBox="0 0 12 11" x="15" y="52" xmlns="http://www.w3.org/2000/svg"><path fill="#444" d="M11.627 5.442c0-1.655-.878-3.155-2.198-3.79v.899c.905.572 1.49 1.68 1.49 2.891 0 1.21-.585 2.318-1.49 2.891v.899c1.32-.636 2.198-2.136 2.198-3.79M9.14 4.91c-.272-.443-.72-.8-1.283-.981v.941c.374.233.61.612.61 1.023 0 .411-.236.79-.61 1.023v.941a2.337 2.337 0 0 0 1.283-.981c.183-.298.289-.633.289-.983s-.106-.685-.29-.983M7.071 0l-4.51 2.619H0V8.38h2.56L7.071 11z" fill-rule="evenodd"/></svg></svg>